{"glyphs":{"0":{"ha":688,"x_min":87,"x_max":592,"o":"m 339 1074 l 339 1073 q 537 933 481 1070 q 592 561 592 795 q 337 -9 589 -9 l 337 -8 q 87 562 94 -7 q 142 933 88 795 q 339 1074 197 1071 m 337 41 q 543 565 540 57 q 493 907 541 794 q 339 1024 444 1021 q 187 908 236 1019 q 136 564 138 796 q 337 41 138 56 z "},"1":{"ha":688,"x_min":195,"x_max":389,"o":"m 195 920 q 237 960 197 937 q 333 1040 277 982 q 368 1063 345 1062 q 389 1021 389 1057 q 353 659 356 869 q 334 20 352 161 q 297 -12 330 -7 q 269 22 269 -7 q 301 656 300 151 q 329 972 309 869 q 264 918 300 938 q 215 899 229 899 q 195 920 196 899 z "},"2":{"ha":688,"x_min":93,"x_max":597,"o":"m 137 81 q 536 806 502 524 q 352 1026 536 1021 q 172 869 186 1013 q 227 760 177 787 q 246 735 245 755 q 218 713 244 713 q 118 870 124 742 q 352 1076 134 1063 q 590 806 590 1072 q 182 48 558 489 q 385 68 269 65 q 564 47 477 68 q 597 17 595 41 q 569 -3 593 -3 q 484 5 526 -1 q 381 14 443 12 q 251 4 323 14 q 117 -8 180 -7 q 93 18 93 -6 l 137 81 z "},"3":{"ha":688,"x_min":104,"x_max":600,"o":"m 408 655 q 523 840 507 707 q 353 1026 523 1021 q 172 869 186 1013 q 228 760 178 787 q 247 735 245 755 q 218 713 245 713 q 119 870 125 742 q 353 1076 135 1063 q 577 840 577 1072 q 462 623 562 694 q 558 495 519 587 q 600 282 598 403 q 363 -9 577 7 l 332 -9 q 110 199 146 7 l 104 249 q 260 463 111 425 q 287 434 287 462 q 242 400 286 409 q 160 248 167 371 l 165 206 q 332 45 191 59 l 363 45 q 545 287 534 61 q 504 484 545 394 q 401 594 462 573 l 371 600 q 351 628 351 606 q 376 654 354 652 l 408 655 z "},"4":{"ha":688,"x_min":68,"x_max":628,"o":"m 440 317 q 445 654 445 471 q 473 983 453 888 q 131 313 370 855 q 315 321 216 321 q 440 317 378 321 m 438 263 q 314 267 376 267 q 109 258 217 267 q 68 285 71 262 q 82 333 68 304 q 473 1059 324 899 q 508 1081 485 1080 q 533 1040 533 1076 q 496 656 500 888 l 496 314 l 606 306 q 628 279 626 302 q 606 252 627 256 l 496 258 q 478 18 496 159 q 441 -14 473 -9 q 412 20 413 -9 q 438 263 430 91 z "},"5":{"ha":688,"x_min":104,"x_max":600,"o":"m 318 665 q 600 282 592 631 q 363 -9 577 7 l 332 -9 q 110 199 146 7 l 104 249 q 260 463 111 425 q 287 434 287 462 q 242 400 286 409 q 160 248 167 371 l 165 206 q 332 45 191 59 l 363 45 q 547 287 534 61 q 319 614 541 579 q 206 600 273 614 q 175 630 177 600 q 198 1047 198 855 q 221 1072 198 1069 q 406 1048 317 1053 q 487 1057 463 1048 q 522 1066 511 1066 q 543 1045 543 1064 q 515 1013 543 1023 q 405 998 484 998 q 250 1013 316 1005 q 227 656 245 852 q 318 665 278 665 z "},"6":{"ha":688,"x_min":102,"x_max":584,"o":"m 480 1036 q 157 268 162 648 q 357 45 173 53 q 532 252 523 55 q 378 452 526 449 q 255 412 296 451 q 229 397 243 397 q 207 416 210 399 q 231 456 207 438 q 380 501 285 499 q 584 250 578 492 q 356 -5 574 5 q 102 269 118 3 q 430 1061 103 651 q 465 1086 448 1086 q 492 1064 490 1086 q 480 1036 492 1050 z "},"7":{"ha":688,"x_min":117,"x_max":581,"o":"m 118 1043 q 140 1062 119 1058 q 208 1051 161 1062 q 318 1038 255 1040 q 452 1050 383 1038 q 541 1064 520 1063 q 581 1021 581 1063 q 454 652 546 867 q 352 20 370 458 q 322 -10 348 -9 q 293 22 294 -7 q 402 656 318 448 q 527 1011 498 869 q 448 999 511 1011 q 319 986 385 986 q 203 995 252 987 q 134 1014 155 1003 q 117 1034 120 1019 l 118 1043 z "},"8":{"ha":682,"x_min":96,"x_max":589,"o":"m 357 669 q 513 850 499 712 q 342 1029 513 1015 q 170 852 170 1015 q 326 669 183 713 l 357 669 m 329 608 q 191 494 231 585 q 151 298 151 403 q 342 54 159 57 q 535 296 524 58 q 493 493 535 404 q 351 608 452 583 l 329 608 m 568 850 q 432 639 561 709 q 548 504 509 596 q 589 292 588 412 q 342 1 583 7 q 96 294 103 7 q 137 505 97 412 q 252 638 177 597 q 115 851 115 709 q 343 1082 127 1071 q 568 850 560 1068 z "},"9":{"ha":688,"x_min":102,"x_max":584,"o":"m 206 45 q 530 814 524 433 q 330 1037 513 1029 q 154 829 163 1027 q 308 630 161 633 q 431 670 391 631 q 457 685 444 684 q 480 666 476 683 q 456 625 479 644 q 307 581 401 583 q 102 831 109 589 q 331 1086 113 1078 q 584 812 568 1078 q 256 22 583 431 q 221 -5 239 -4 q 194 18 196 -5 q 206 45 195 31 z "}," ":{"ha":345,"x_min":0,"x_max":0,"o":""},"!":{"ha":456,"x_min":179,"x_max":267,"o":"m 217 132 q 265 91 258 131 q 220 35 256 35 q 179 84 179 40 q 217 132 181 131 m 233 1041 q 267 1012 265 1041 q 260 905 267 972 q 250 668 251 715 l 257 313 l 255 298 q 231 278 252 278 q 203 304 205 279 q 208 408 203 330 l 208 857 q 205 1004 205 954 q 233 1041 212 1038 z "},"\"":{"ha":456,"x_min":129,"x_max":338,"o":"m 151 1029 q 193 1014 184 1029 l 198 1002 q 168 815 198 983 q 156 789 163 794 q 138 800 140 789 q 129 840 130 822 q 132 995 132 944 q 151 1029 140 1029 m 291 1025 q 333 1009 325 1024 l 338 997 q 309 810 338 978 q 296 784 303 789 q 279 795 281 784 q 269 835 270 817 q 273 990 273 939 q 291 1025 280 1024 z "},"#":{"ha":906,"x_min":79,"x_max":827,"o":"m 404 583 l 347 386 l 511 386 l 569 583 l 404 583 m 456 972 l 519 972 l 424 649 l 588 649 l 684 972 l 747 972 l 651 649 l 827 649 l 807 583 l 631 583 l 575 387 l 764 387 l 744 320 l 554 320 l 459 0 l 397 0 l 491 320 l 328 320 l 232 0 l 170 0 l 264 320 l 79 320 l 100 387 l 283 387 l 342 583 l 142 583 l 161 649 l 361 649 l 456 972 z "},"$":{"ha":722,"x_min":7,"x_max":712,"o":"m 106 515 l 26 515 q 7 543 7 523 q 28 567 9 562 l 118 567 q 130 629 122 601 l 26 629 q 7 656 7 636 q 28 680 9 675 l 139 680 q 235 908 164 791 q 539 1127 366 1117 q 684 998 680 1122 q 597 873 677 890 q 551 907 551 874 q 578 932 553 928 q 633 996 629 932 q 544 1078 627 1073 q 288 890 401 1065 q 198 680 220 783 l 464 680 q 483 654 483 678 q 466 629 483 633 l 182 629 q 172 567 174 598 l 464 566 q 483 541 483 564 q 466 515 483 519 l 167 515 q 158 446 165 508 q 115 93 139 260 l 414 56 q 659 199 640 56 q 581 275 658 269 q 555 304 558 279 q 585 332 557 330 q 712 205 712 313 q 406 1 696 1 l 106 34 q 31 54 46 34 q 54 104 34 82 q 106 515 83 263 z "},"%":{"ha":1092,"x_min":42,"x_max":1050,"o":"m 304 989 q 434 956 371 989 q 532 862 496 923 q 567 732 567 800 q 533 605 567 665 q 436 510 498 544 q 304 475 373 475 q 174 510 237 475 q 77 605 111 544 q 42 732 42 665 q 77 862 42 800 q 175 956 113 923 q 304 989 238 989 m 140 723 q 177 605 149 661 q 250 521 206 550 q 327 494 288 494 q 336 494 332 494 q 414 530 378 496 q 463 623 449 564 q 472 698 472 659 q 469 742 472 720 q 431 861 461 805 q 359 945 401 917 q 281 971 319 971 l 273 971 q 197 936 232 969 q 147 844 161 903 q 137 765 137 805 q 140 723 137 744 m 201 -20 l 839 971 l 896 971 l 260 -20 l 201 -20 m 787 500 q 916 467 853 500 q 1015 372 979 433 q 1050 243 1050 311 q 1016 115 1050 176 q 919 20 981 54 q 787 -14 856 -14 q 656 20 719 -14 q 559 115 594 54 q 525 243 525 176 q 560 372 525 311 q 658 467 595 433 q 787 500 721 500 m 623 233 q 660 116 631 171 q 732 31 689 60 q 811 5 772 5 l 819 5 q 897 41 861 7 q 946 133 932 75 q 955 208 955 170 q 952 252 955 230 q 914 371 944 315 q 842 456 884 427 q 764 481 802 481 l 756 481 q 680 446 715 479 q 630 355 644 413 q 620 275 620 315 q 623 233 620 254 z "},"&":{"ha":911,"x_min":15,"x_max":901,"o":"m 338 748 q 309 905 322 809 q 478 1084 313 1074 q 620 939 620 1074 q 397 722 602 819 q 553 228 480 391 q 629 448 607 319 q 662 484 633 484 q 688 443 688 481 q 590 180 655 299 q 747 52 662 65 q 851 231 851 55 q 876 260 851 260 q 901 231 901 260 q 751 1 899 3 q 553 140 640 7 q 239 -2 435 -1 q 15 279 16 8 q 338 748 35 570 m 572 939 q 476 1036 572 1030 q 359 905 361 1025 q 382 772 363 825 q 572 939 537 838 m 351 700 q 69 276 83 541 q 240 52 69 60 q 522 182 420 56 q 351 700 431 348 z "},"'":{"ha":235,"x_min":95,"x_max":164,"o":"m 117 1029 q 159 1014 151 1029 l 164 1002 q 134 815 164 983 q 122 789 129 794 q 104 800 106 789 q 95 840 96 822 q 98 995 98 944 q 117 1029 106 1029 z "},"(":{"ha":514,"x_min":121,"x_max":428,"o":"m 368 1093 q 409 1111 387 1110 q 428 1078 427 1103 q 399 1045 422 1055 q 180 482 194 863 q 374 -210 196 63 q 389 -245 388 -222 q 359 -263 387 -262 q 315 -226 331 -262 q 121 484 134 60 q 368 1093 140 900 z "},")":{"ha":514,"x_min":123,"x_max":448,"o":"m 182 -249 q 140 -265 163 -265 q 123 -233 123 -258 q 153 -200 130 -209 q 389 355 363 -24 q 217 1053 387 775 q 203 1089 203 1067 q 233 1107 205 1107 q 276 1069 261 1104 q 448 352 448 776 q 182 -249 416 -63 z "},"*":{"ha":694,"x_min":148,"x_max":546,"o":"m 338 878 q 313 966 335 926 q 288 1023 288 1010 q 303 1058 288 1044 q 346 1071 319 1071 q 388 1059 371 1071 q 404 1027 404 1046 q 380 966 404 1013 q 355 878 357 925 q 431 929 399 895 q 478 970 466 966 q 492 972 486 972 q 516 966 505 972 q 542 930 534 954 q 546 905 546 917 q 543 886 546 895 q 517 861 536 866 q 505 859 513 859 q 453 865 488 859 q 416 869 434 869 q 361 861 388 869 q 432 805 391 824 q 486 773 478 783 q 494 747 494 761 q 493 736 494 741 q 467 700 488 715 q 427 685 447 685 q 426 686 426 685 q 393 701 405 686 q 378 765 385 713 q 347 850 372 810 q 315 766 321 810 q 302 705 309 715 q 269 686 289 688 l 265 686 q 227 701 246 686 q 200 735 206 715 q 197 749 197 742 q 205 770 197 760 q 261 805 214 782 q 332 861 302 825 q 278 868 304 868 q 242 865 260 868 q 189 857 205 857 q 180 859 183 857 q 152 884 159 865 q 148 904 148 893 q 152 928 148 916 q 176 964 159 952 q 199 972 188 972 q 212 970 205 972 q 262 928 225 966 q 338 878 294 895 z "},"+":{"ha":688,"x_min":59,"x_max":629,"o":"m 296 439 l 59 439 l 59 534 l 296 534 l 296 784 l 297 785 l 391 785 l 391 534 l 628 534 l 629 533 l 629 439 l 391 439 l 391 188 l 296 188 l 296 439 z "},",":{"ha":378,"x_min":123,"x_max":198,"o":"m 172 92 q 198 71 193 91 q 161 -68 198 57 q 146 -87 157 -82 q 131 -78 132 -87 q 123 -49 123 -62 q 137 66 137 28 q 172 92 143 91 z "},"-":{"ha":454,"x_min":60,"x_max":389,"o":"m 130 350 l 153 353 q 224 340 195 353 q 281 320 253 327 l 303 317 q 342 328 327 317 q 368 340 358 340 q 389 316 388 338 q 312 269 385 274 l 293 269 q 233 288 269 273 q 163 306 196 304 l 144 304 q 105 286 120 302 q 81 271 91 271 q 60 298 60 275 q 130 350 69 335 z "},".":{"ha":378,"x_min":145,"x_max":231,"o":"m 183 111 q 231 71 224 111 q 186 14 222 14 q 145 64 145 20 q 183 111 147 111 z "},"/":{"ha":386,"x_min":18,"x_max":441,"o":"m 72 -1 q 41 -28 67 -28 q 18 8 18 -25 q 387 1008 144 487 q 418 1027 391 1027 q 441 995 439 1027 q 72 -1 186 469 z "},":":{"ha":378,"x_min":156,"x_max":243,"o":"m 195 564 q 243 524 235 564 q 198 467 233 467 q 157 517 157 473 q 195 564 159 564 m 194 148 q 242 107 235 147 q 197 51 233 51 q 156 100 156 56 q 194 148 158 147 z "},";":{"ha":378,"x_min":160,"x_max":246,"o":"m 198 562 q 246 521 239 561 q 201 465 237 465 q 160 514 160 470 q 198 562 162 561 m 195 163 q 243 141 237 163 q 216 -9 243 125 q 200 -31 212 -27 q 184 -22 186 -31 q 176 10 176 -4 q 178 136 178 94 q 195 163 185 163 z "},"<":{"ha":688,"x_min":59,"x_max":629,"o":"m 629 728 l 205 485 l 629 244 l 629 131 l 59 457 l 59 513 l 629 842 l 629 728 z "},"=":{"ha":688,"x_min":59,"x_max":629,"o":"m 59 428 l 629 428 l 629 333 l 59 333 l 59 428 m 59 640 l 629 640 l 629 545 l 59 545 l 59 640 z "},">":{"ha":688,"x_min":59,"x_max":629,"o":"m 59 842 l 629 513 l 629 457 l 59 131 l 59 244 l 483 485 l 59 728 l 59 842 z "},"?":{"ha":507,"x_min":42,"x_max":494,"o":"m 203 526 q 331 677 224 574 q 442 869 439 780 q 267 1076 442 1070 q 94 911 107 1062 q 146 796 99 825 q 165 770 163 791 q 138 748 163 748 q 42 912 48 778 q 267 1127 58 1114 q 494 869 494 1124 q 381 657 492 770 q 248 496 271 545 q 224 410 224 454 q 239 336 229 376 q 216 303 236 307 q 171 380 178 304 l 169 420 q 203 526 171 473 m 229 189 q 284 148 277 188 q 233 92 275 92 q 191 141 191 97 q 229 189 193 188 z "},"@":{"ha":1369,"x_min":68,"x_max":1276,"o":"m 659 422 q 557 368 603 415 q 511 233 511 320 q 554 101 511 160 q 678 42 597 42 q 764 155 744 45 l 764 478 q 659 422 727 435 m 922 20 q 854 32 880 20 q 812 68 829 43 q 757 25 793 43 q 667 6 721 6 q 493 74 569 6 q 416 233 416 142 q 452 346 417 292 q 542 424 488 399 q 660 457 597 448 q 734 486 705 468 q 764 536 764 504 q 736 621 762 583 q 648 659 709 659 q 566 619 600 659 q 532 534 532 579 l 501 534 l 501 642 q 550 669 501 656 q 671 683 600 683 q 802 639 745 682 q 859 532 859 597 l 859 133 q 923 54 859 54 q 1104 183 1048 77 q 1160 443 1160 290 q 1002 809 1146 670 q 677 937 869 937 q 411 843 538 937 q 228 602 283 750 q 182 357 182 481 q 270 11 182 145 q 477 -186 358 -124 q 693 -249 596 -249 q 1083 -108 879 -249 l 1083 -159 q 696 -283 905 -283 q 383 -200 533 -283 q 151 32 233 -117 q 68 345 68 180 q 152 660 68 509 q 386 891 236 810 q 696 972 536 972 q 1109 817 941 972 q 1276 433 1276 661 q 1157 135 1276 250 q 922 20 1038 21 z "},"A":{"ha":707,"x_min":3,"x_max":704,"o":"m 3 272 q 179 900 15 686 q 515 1127 342 1113 q 654 1086 604 1127 q 704 980 704 1046 q 629 903 697 903 q 603 923 604 905 q 631 949 603 948 q 660 980 660 949 q 624 1050 659 1025 q 519 1076 589 1076 q 567 581 532 749 q 651 236 602 412 q 701 20 701 60 q 673 -1 692 1 q 645 18 646 2 l 553 395 l 532 444 q 219 644 385 640 q 107 616 146 644 q 62 274 65 500 l 69 28 q 41 -1 68 0 q 14 26 16 -1 l 3 272 m 473 1065 q 252 906 351 1026 q 125 686 153 787 q 221 699 178 698 q 523 537 391 689 q 473 1065 480 763 z "},"B":{"ha":654,"x_min":7,"x_max":650,"o":"m 31 1103 q 68 1063 56 1103 q 104 728 94 954 q 429 1131 166 1125 q 585 935 581 1116 q 464 739 573 793 q 650 482 642 677 q 545 143 650 288 q 298 -4 439 -2 q 184 111 189 12 q 245 208 189 197 q 269 188 269 206 q 251 158 269 163 q 233 115 233 152 q 300 49 233 61 q 503 178 410 50 q 597 479 596 306 q 365 701 590 669 q 290 697 330 701 q 249 725 250 698 q 291 747 253 747 l 389 758 q 538 933 525 792 q 421 1082 528 1074 q 127 578 189 1075 q 144 35 144 85 q 121 1 144 12 q 91 33 92 2 q 67 611 90 113 q 7 1067 45 979 q 31 1103 7 1101 z "},"C":{"ha":637,"x_min":12,"x_max":643,"o":"m 465 1127 q 606 998 605 1122 q 523 873 602 890 q 476 907 477 874 q 503 932 478 928 q 562 996 557 932 q 469 1080 559 1077 q 207 883 327 1065 q 63 493 87 701 l 62 398 q 281 45 85 74 q 492 168 406 45 q 594 423 578 290 q 621 460 597 460 q 643 419 643 456 q 536 135 634 277 q 279 -10 437 -6 q 12 391 40 13 l 15 486 q 160 908 28 699 q 465 1127 291 1117 z "},"D":{"ha":690,"x_min":7,"x_max":684,"o":"m 31 1100 q 68 1059 56 1099 q 104 726 94 951 q 429 1127 166 1122 q 622 1002 560 1120 q 684 684 684 884 q 579 202 679 406 q 298 -4 480 -2 q 184 111 189 12 q 245 207 189 196 q 269 187 269 205 q 251 157 269 163 q 233 115 233 151 q 300 49 233 61 q 538 236 451 50 q 632 682 625 423 q 578 972 631 871 q 425 1075 525 1074 q 127 577 182 1070 q 144 34 144 84 q 121 1 144 12 q 91 33 92 2 q 67 610 90 113 q 7 1064 45 975 q 31 1100 7 1098 z "},"E":{"ha":722,"x_min":5,"x_max":715,"o":"m 477 1124 q 673 996 673 1119 q 572 882 662 895 q 520 913 521 883 q 551 937 522 934 q 624 994 612 937 q 482 1078 622 1075 q 284 1007 372 1076 q 196 873 196 937 q 302 762 196 797 q 471 794 395 777 q 504 772 498 793 q 470 735 504 743 q 315 683 374 722 q 62 363 86 557 l 62 317 q 308 45 87 73 q 546 167 448 45 q 661 422 643 289 q 690 459 665 459 q 715 418 715 454 q 595 135 705 277 q 307 -10 484 -6 q 5 309 37 13 l 7 355 q 265 720 24 574 q 138 871 152 754 q 237 1038 140 958 q 477 1124 334 1118 z "},"F":{"ha":580,"x_min":-26,"x_max":711,"o":"m 381 1113 q 490 1114 381 1113 q 681 1127 599 1116 q 711 1103 711 1126 q 684 1076 710 1077 l 614 1066 q 470 745 492 1008 l 562 752 q 604 730 597 752 q 567 703 602 705 l 467 694 q 106 -13 412 -3 q -1 14 41 -10 q -26 54 -26 26 q 1 77 -24 71 q 109 41 56 41 q 412 688 367 71 q 275 659 355 688 q 244 684 245 659 q 283 715 245 701 q 418 741 324 732 q 524 1065 436 981 q 106 1010 184 1061 q 28 903 28 959 q 71 842 36 842 q 106 820 102 842 q 76 786 103 788 q -21 897 -18 805 q 71 1050 -21 990 q 381 1113 163 1110 z "},"G":{"ha":770,"x_min":12,"x_max":686,"o":"m 621 332 q 496 112 583 229 q 273 -10 410 -6 q 12 391 40 13 l 15 486 q 160 908 28 699 q 465 1127 291 1117 q 605 999 605 1122 q 523 873 602 890 q 476 907 477 874 q 503 932 478 929 q 562 996 557 932 q 469 1080 559 1078 q 207 883 327 1065 q 63 493 87 701 l 62 399 q 274 45 85 74 q 456 143 378 45 q 576 361 533 241 q 629 649 619 481 q 600 823 627 760 q 625 854 601 849 q 670 808 659 853 q 686 653 681 763 q 583 -64 682 203 q 283 -349 483 -330 q 119 -212 129 -344 q 194 -81 119 -102 q 235 -105 230 -81 q 205 -141 235 -135 q 175 -210 175 -147 q 282 -292 183 -288 q 521 -79 433 -289 q 621 332 608 132 z "},"H":{"ha":848,"x_min":1,"x_max":833,"o":"m 1 903 q 104 1056 1 994 q 345 1131 208 1118 q 370 1101 367 1127 q 319 685 332 879 q 417 706 350 704 q 735 457 631 699 q 723 748 723 586 q 735 1101 724 913 q 760 1129 735 1129 q 787 1101 787 1127 q 773 747 773 908 q 794 380 782 564 q 833 26 817 182 q 810 -1 833 4 q 778 18 787 -1 q 746 297 770 168 q 417 656 634 650 q 317 616 349 656 q 304 23 304 345 q 281 -5 304 -4 q 247 22 248 -5 q 263 653 254 341 q 319 1079 283 883 q 135 1021 222 1066 q 47 903 47 976 q 93 838 50 845 q 136 856 123 838 q 161 879 143 879 q 185 848 185 879 q 92 787 164 787 q 1 903 4 803 z "},"I":{"ha":435,"x_min":6,"x_max":432,"o":"m 6 739 q 74 906 6 831 q 336 1107 142 981 q 367 1131 345 1130 q 389 1089 389 1125 q 351 726 354 937 q 258 64 345 168 q 355 56 337 56 q 383 68 371 56 q 409 81 395 81 q 432 51 432 81 q 347 1 417 8 q 227 10 288 5 q 151 -1 194 0 q 123 26 124 -1 q 153 53 126 49 l 189 64 q 302 724 293 158 q 328 1044 310 937 q 105 868 157 925 q 52 743 52 812 q 102 680 58 692 q 137 652 136 680 q 102 627 130 627 q 6 739 12 648 z "},"J":{"ha":447,"x_min":-186,"x_max":656,"o":"m 466 1025 q 335 122 462 562 q -31 -334 205 -330 q -186 -195 -179 -324 q -100 -67 -186 -96 q -68 -97 -68 -72 q -103 -131 -69 -119 q -136 -195 -136 -143 q -31 -279 -134 -275 q 289 161 168 -278 q 417 1013 410 600 q 60 728 85 944 q 100 637 60 663 q 134 604 133 637 q 97 580 132 580 q 12 730 12 595 q 447 1073 35 1000 q 594 1112 574 1102 q 635 1127 614 1122 q 656 1104 656 1127 q 466 1025 656 1061 z "},"K":{"ha":790,"x_min":3,"x_max":1077,"o":"m 3 823 q 366 1124 27 1050 q 401 1090 401 1124 q 368 758 387 892 q 714 1085 656 788 q 748 1124 715 1120 q 768 1080 768 1124 q 410 709 713 753 q 930 -110 663 -37 q 1046 -92 980 -110 q 1077 -130 1076 -92 q 945 -174 1067 -170 q 357 683 660 -174 q 251 56 277 131 q 214 3 245 4 q 190 44 194 3 q 350 1063 311 615 q 52 821 77 995 q 92 737 52 748 q 126 703 125 736 q 89 680 124 680 q 3 823 3 694 z "},"L":{"ha":688,"x_min":-3,"x_max":679,"o":"m 476 1080 q 325 971 382 1069 q 250 696 267 874 q 472 794 378 706 q 568 972 566 882 q 476 1080 567 1070 m 35 741 q 198 702 116 709 q 288 1015 217 910 q 476 1127 359 1120 q 612 974 611 1121 q 492 747 609 847 q 244 645 376 648 q 179 326 218 446 q 81 93 140 205 l 380 56 q 625 199 607 56 q 548 275 625 269 q 522 304 525 279 q 551 332 524 330 q 679 205 679 313 q 373 1 663 1 l 73 34 q -3 54 13 34 q 20 104 1 82 q 125 338 84 209 q 191 649 166 467 q 49 680 113 656 q 9 715 10 690 q 35 741 10 740 z "},"M":{"ha":1249,"x_min":8,"x_max":1243,"o":"m 173 1121 q 356 965 303 1118 q 419 565 410 811 q 575 1101 456 886 q 596 1120 578 1118 q 621 1101 616 1119 q 702 548 668 949 q 807 926 722 728 q 1036 1127 892 1124 q 1243 746 1236 1122 q 1031 68 1243 441 q 1119 75 1084 75 q 1222 26 1217 64 q 1202 0 1222 5 q 1114 19 1145 19 q 982 1 1069 19 q 955 22 959 2 q 964 62 955 39 q 1190 739 1183 450 q 1034 1076 1185 1068 q 845 886 924 1068 q 728 349 766 703 l 722 174 l 726 33 q 697 -1 726 -1 q 665 32 667 -1 l 663 176 q 636 679 658 421 q 588 1007 615 937 q 435 310 506 873 l 414 31 q 387 0 414 0 q 358 32 361 1 q 368 433 361 190 q 336 831 365 616 q 181 1067 308 1046 q 59 951 75 1053 q 128 878 59 880 q 151 852 151 878 q 128 826 151 829 q 8 951 17 827 q 173 1121 26 1101 z "},"N":{"ha":645,"x_min":41,"x_max":1043,"o":"m 54 25 l 41 587 q 62 1072 47 1000 q 85 1093 62 1090 q 140 1066 110 1093 q 501 510 377 901 q 641 957 521 789 q 897 1127 761 1126 q 1043 1040 1025 1123 q 1023 1009 1043 1009 q 1000 1027 1004 1009 q 895 1076 977 1074 q 671 914 774 1074 q 549 427 569 754 q 574 28 559 275 q 550 0 573 4 q 521 28 524 2 q 418 593 514 323 q 108 1027 323 863 q 92 587 99 972 l 111 25 q 83 1 111 1 q 54 25 56 3 z "},"O":{"ha":765,"x_min":7,"x_max":754,"o":"m 500 1127 q 754 732 743 1125 q 625 216 754 446 q 292 -18 495 -14 q 7 398 24 12 q 92 730 9 569 q 297 899 176 891 q 414 764 411 892 q 328 649 405 659 q 294 673 294 649 q 329 706 294 702 q 369 762 365 709 q 299 848 369 848 q 128 688 197 838 q 59 398 59 538 q 292 42 71 69 q 587 260 469 43 q 705 729 705 477 q 503 1078 691 1078 q 370 949 395 1078 q 339 920 362 920 q 320 953 321 924 q 500 1127 355 1120 z "},"P":{"ha":623,"x_min":7,"x_max":650,"o":"m 33 1107 q 72 1066 59 1106 q 111 730 99 957 q 456 1127 191 1122 q 650 870 640 1114 q 549 504 650 689 q 302 319 448 319 q 193 401 224 324 l 185 441 q 225 517 194 515 q 252 487 249 515 l 240 433 q 306 375 258 380 q 508 546 417 381 q 600 869 600 711 q 450 1076 586 1067 q 136 579 202 1069 q 140 32 139 83 q 115 -1 140 -1 q 83 31 83 -1 q 71 612 82 112 q 7 1071 47 981 q 33 1107 7 1105 z "},"Q":{"ha":695,"x_min":-1,"x_max":1114,"o":"m 443 1127 q 703 737 703 1119 q 521 104 693 352 q 912 -168 669 -138 q 1031 -128 1000 -167 q 1093 -90 1063 -90 q 1114 -128 1114 -92 q 907 -219 1087 -218 q 485 64 634 -189 q 271 -22 404 -22 q -1 403 17 6 q 125 922 6 724 q 443 1127 245 1120 m 492 154 q 652 736 642 361 q 441 1070 652 1066 q 169 889 278 1069 q 52 402 59 709 q 270 34 61 77 q 454 109 393 36 q 291 278 357 277 q 247 265 256 278 q 221 252 237 252 q 195 275 200 257 q 293 329 196 329 q 492 154 408 321 z "},"R":{"ha":656,"x_min":7,"x_max":652,"o":"m 31 1100 q 68 1059 56 1099 q 104 726 94 951 q 429 1127 166 1122 q 588 924 581 1113 q 386 646 566 677 q 268 661 310 646 q 539 66 449 67 q 598 166 597 67 q 627 195 605 195 q 652 153 652 191 q 539 1 649 2 q 210 665 388 2 q 195 715 195 688 q 230 737 199 737 q 389 703 275 709 q 538 930 525 738 q 421 1078 528 1070 q 127 577 189 1072 q 144 34 144 84 q 121 1 144 12 q 91 33 92 1 q 67 609 90 113 q 7 1064 45 975 q 31 1100 7 1098 z "},"S":{"ha":630,"x_min":-9,"x_max":660,"o":"m 216 644 q 378 488 377 642 q 326 389 374 412 q 293 408 301 390 q 308 440 293 427 q 326 486 323 454 q 216 588 326 587 q 94 507 141 585 q 45 323 46 428 q 126 119 52 187 q 300 50 201 50 q 528 318 508 59 q 421 652 524 464 q 318 929 318 840 q 515 1127 322 1124 q 660 975 647 1120 q 568 839 658 846 q 539 865 540 839 q 564 893 539 893 q 609 975 609 899 q 511 1070 607 1065 q 371 929 372 1069 q 475 655 372 842 q 580 318 579 468 q 298 -12 567 6 q 83 75 166 -9 q -9 327 0 160 q 60 560 -1 484 q 216 644 121 636 z "},"T":{"ha":536,"x_min":-37,"x_max":696,"o":"m 204 1124 l 380 1112 l 551 1098 q 675 1116 629 1098 q 696 1093 696 1116 q 549 1043 696 1046 l 409 1055 q 366 766 368 939 l 356 288 q 186 -1 353 -1 q 153 28 153 3 q 184 60 153 56 q 301 288 290 60 l 312 766 q 352 1060 316 946 l 208 1074 q 12 921 35 1073 q 63 836 12 842 q 94 810 92 836 q 64 785 92 785 q -37 922 -33 789 q 204 1124 -20 1114 z "},"U":{"ha":863,"x_min":5,"x_max":871,"o":"m 5 837 q 360 1123 14 1016 l 378 1127 q 408 1097 408 1127 q 222 387 226 631 q 400 54 224 58 q 720 462 628 55 q 756 918 751 644 q 781 948 757 947 q 807 918 807 948 q 820 458 809 648 q 871 34 830 269 q 848 -7 871 -4 q 819 32 820 -6 q 767 446 780 263 q 400 -4 673 1 q 166 391 170 6 q 338 1057 167 639 q 56 834 72 968 q 115 728 56 752 q 132 699 132 720 q 109 677 130 677 l 87 682 q 5 837 7 721 z "},"V":{"ha":712,"x_min":1,"x_max":753,"o":"m 4 1006 l 1 1025 q 21 1048 1 1046 q 45 1036 38 1048 q 196 636 127 882 q 319 85 264 390 q 701 845 669 549 q 526 1076 701 1070 q 353 911 366 1062 q 406 796 358 825 q 424 770 422 791 q 397 748 422 748 q 301 912 307 778 q 526 1127 317 1114 q 753 845 753 1124 q 326 11 722 513 q 300 -1 316 -1 q 277 18 284 1 q 144 631 212 388 q 4 1006 75 875 z "},"W":{"ha":1033,"x_min":-46,"x_max":1051,"o":"m 391 768 q 410 791 391 789 q 434 779 427 791 q 618 85 536 358 q 1000 845 967 549 q 824 1076 1000 1070 q 651 911 665 1062 q 704 796 656 825 q 722 770 721 791 q 695 748 720 748 q 600 912 606 778 q 824 1127 615 1114 q 1051 845 1051 1124 q 624 11 1021 513 q 599 -1 614 -1 q 575 18 583 1 q 410 608 489 359 l 278 11 q 253 -1 269 -1 q 229 18 237 1 q 96 631 165 388 q -43 1006 28 875 l -46 1025 q -26 1048 -46 1046 q -3 1036 -9 1048 q 148 636 80 882 q 258 171 216 390 l 391 768 z "},"X":{"ha":779,"x_min":6,"x_max":802,"o":"m 17 938 q 220 1127 37 1116 q 445 805 407 1116 q 766 1109 539 1059 q 802 1084 800 1109 q 774 1053 800 1053 q 553 899 644 1028 q 449 492 461 770 q 629 62 449 66 q 717 182 712 62 q 747 211 718 208 q 773 178 773 208 q 627 2 756 2 q 387 353 433 2 q 45 1 236 22 q 6 28 7 2 q 35 57 7 57 q 275 260 168 83 q 395 697 382 437 q 218 1076 395 1058 q 68 939 85 1063 q 108 838 69 873 q 139 808 139 837 q 105 785 138 786 q 17 938 24 798 z "},"Y":{"ha":746,"x_min":-14,"x_max":768,"o":"m -14 846 q 368 1123 -5 1024 l 387 1127 q 416 1097 416 1127 q 176 479 180 728 q 300 236 178 239 q 710 1081 589 237 q 741 1112 711 1111 q 768 1082 768 1112 l 767 848 q 592 31 747 329 q 240 -267 437 -267 q 75 -130 85 -262 q 151 1 76 -21 q 191 -24 186 1 q 161 -60 191 -54 q 132 -128 132 -66 q 239 -210 140 -207 q 548 66 406 -208 q 718 843 689 340 q 300 178 597 178 q 120 484 124 189 q 338 1061 134 751 q 37 844 53 977 q 96 738 37 762 q 113 709 113 730 q 90 688 111 688 l 68 692 q -14 846 -12 731 z "},"Z":{"ha":580,"x_min":15,"x_max":607,"o":"m 251 1122 l 521 1122 q 543 1092 542 1121 l 78 60 l 403 59 q 553 180 514 59 q 585 221 561 221 q 607 184 607 221 q 425 3 552 9 l 41 3 q 15 51 15 18 l 476 1070 l 225 1070 q 79 947 88 1064 q 133 833 81 856 q 168 847 163 833 q 189 862 173 861 q 208 838 208 862 q 138 788 202 798 q 32 947 35 798 q 251 1122 51 1122 z "},"_":{"ha":694,"x_min":0,"x_max":694,"o":"m 0 -68 l 694 -68 l 694 -109 l 0 -109 l 0 -68 z "},"`":{"ha":694,"x_min":156,"x_max":450,"o":"m 156 874 q 195 915 162 910 l 207 914 q 421 831 230 909 q 450 807 450 819 q 417 795 450 796 l 399 796 l 377 801 q 191 849 252 834 q 156 874 157 856 z "},"a":{"ha":683,"x_min":4,"x_max":726,"o":"m 496 642 q 474 618 496 620 q 454 641 455 620 q 403 690 448 687 q 157 536 264 680 q 50 219 50 392 q 132 41 52 41 q 441 523 313 50 q 469 574 441 574 q 492 524 492 574 q 589 44 496 46 q 686 206 637 45 q 707 221 692 221 q 726 203 725 219 l 723 186 q 585 0 669 3 q 452 414 460 3 q 137 -2 342 14 l 121 -2 q 4 215 13 6 l 5 245 q 130 573 7 418 q 406 732 253 728 q 496 642 488 724 z "},"b":{"ha":567,"x_min":14,"x_max":551,"o":"m 125 1099 q 59 435 74 829 l 62 255 q 200 588 102 444 q 399 735 297 732 l 435 733 q 551 526 549 701 q 451 185 544 360 q 220 -3 359 10 q 117 96 130 9 q 144 134 117 131 q 174 92 170 132 q 216 38 174 56 q 409 196 319 41 q 509 511 500 351 q 424 689 509 675 l 395 691 q 230 556 313 687 q 101 244 148 425 l 85 152 l 104 36 q 78 -3 104 3 q 58 26 58 6 q 14 437 14 209 q 79 1105 28 835 q 109 1128 83 1128 q 125 1099 125 1124 z "},"c":{"ha":570,"x_min":2,"x_max":627,"o":"m 503 614 q 481 590 503 593 q 458 614 458 593 q 393 690 451 687 l 377 688 q 147 532 241 680 q 45 210 54 385 q 163 42 56 42 q 581 387 357 42 q 611 406 593 406 q 627 387 625 402 q 616 364 626 374 q 161 -2 387 -1 l 145 -2 q 2 195 16 6 l 3 225 q 113 565 10 412 q 367 734 216 718 l 402 732 q 503 614 494 724 z "},"d":{"ha":715,"x_min":-3,"x_max":745,"o":"m 471 407 q 136 -1 355 28 l 120 -1 q -3 161 12 7 l -2 192 q 107 545 5 383 q 349 730 210 706 l 377 732 q 465 645 463 724 q 446 621 464 621 q 424 642 425 621 q 366 690 424 688 q 140 513 234 673 q 47 183 47 352 q 131 46 51 47 q 460 524 332 64 q 483 819 479 699 q 471 1097 481 940 q 492 1131 471 1131 q 515 1105 515 1131 q 526 819 526 940 q 514 517 521 671 l 515 469 q 607 43 521 66 q 703 218 660 43 q 727 233 709 233 q 745 208 745 231 l 743 191 q 606 -6 692 -6 q 471 407 472 1 z "},"e":{"ha":564,"x_min":4,"x_max":608,"o":"m 486 596 q 416 439 484 507 q 256 372 349 372 q 139 476 144 386 q 163 500 141 500 q 184 467 184 500 q 260 418 189 425 q 386 475 330 418 q 443 603 443 532 q 370 690 443 677 l 347 690 q 142 544 231 688 q 53 227 53 400 q 178 50 75 59 q 557 386 366 58 q 586 404 570 404 q 608 386 606 401 q 598 363 608 373 q 165 -2 387 -2 q 4 229 25 15 q 106 576 7 427 q 340 734 205 726 l 367 734 q 486 596 486 718 z "},"f":{"ha":474,"x_min":-16,"x_max":557,"o":"m 115 608 q 30 516 38 587 q 73 429 30 465 q 115 608 92 524 m -16 526 q 128 658 3 625 q 406 1088 261 1078 l 436 1087 q 521 968 515 1075 q 399 798 507 803 q 325 859 334 798 q 344 885 326 878 q 362 863 359 884 q 401 836 367 836 q 479 964 472 846 q 420 1048 478 1048 q 180 671 292 1045 q 475 701 273 693 q 496 684 492 701 q 456 656 496 659 q 165 620 271 650 q 113 395 135 523 q 439 85 322 251 q 557 -279 556 -80 q 408 -458 532 -448 l 373 -456 q 135 -226 218 -435 q 52 214 52 -16 l 60 375 q -16 526 -16 435 m 103 341 l 96 217 q 171 -192 99 -5 q 366 -407 243 -378 l 402 -413 q 514 -279 499 -405 q 399 58 511 -102 q 103 341 288 218 z "},"g":{"ha":569,"x_min":13,"x_max":610,"o":"m 462 -8 q 190 -78 304 -10 q 58 -258 75 -145 l 57 -290 q 159 -437 59 -435 q 462 -8 363 -435 m 471 36 q 492 263 489 127 q 473 444 490 372 q 151 1 350 16 l 136 1 q 13 204 18 16 l 14 235 q 151 567 28 401 q 427 734 274 734 q 507 644 505 726 q 488 623 507 623 q 469 644 469 623 q 424 692 469 690 q 178 535 292 689 q 56 219 64 381 q 146 43 66 43 q 456 526 328 53 q 483 577 456 577 q 507 526 507 577 q 534 269 530 374 q 516 33 534 156 q 589 19 568 28 q 610 -6 609 10 q 588 -25 606 -24 l 578 -24 q 506 -9 547 -12 q 168 -481 403 -460 l 136 -479 q 14 -290 16 -455 l 15 -261 q 161 -44 33 -120 q 471 36 288 32 z "},"h":{"ha":663,"x_min":-45,"x_max":687,"o":"m -45 628 q -26 646 -45 646 l 19 644 q 308 1126 68 1105 l 337 1125 q 434 985 434 1115 l 429 943 q 301 723 414 832 q 61 599 189 613 l 65 478 l 86 232 q 201 570 115 416 q 414 732 287 724 l 448 728 q 566 528 561 705 q 534 294 559 410 q 509 131 509 179 q 570 50 509 52 q 644 142 616 52 q 669 157 646 157 q 687 132 687 155 q 573 1 637 1 q 466 102 477 5 q 495 296 466 178 q 524 529 524 414 q 414 687 524 682 q 235 539 315 684 q 127 214 156 395 l 121 114 l 124 29 q 99 -1 124 1 q 78 22 83 -1 q 25 462 45 188 l 18 597 l -22 599 q -45 628 -45 601 m 340 1083 l 309 1085 q 65 646 104 1053 q 273 753 170 652 q 388 949 377 854 l 392 979 q 340 1083 392 1069 z "},"i":{"ha":320,"x_min":7,"x_max":361,"o":"m 142 905 q 174 882 164 905 q 145 817 163 817 q 118 862 118 821 q 142 905 119 905 m 63 636 q 95 669 71 669 q 115 647 115 667 q 53 317 54 485 q 193 34 72 46 q 317 220 262 35 q 339 250 319 250 q 361 219 361 250 q 195 -13 303 -4 q 7 314 28 -3 q 63 636 8 500 z "},"j":{"ha":307,"x_min":-259,"x_max":345,"o":"m 52 947 q 75 962 56 962 q 113 881 101 960 q 99 863 111 863 l 89 865 q 52 947 66 867 m 123 696 l 120 713 q 140 736 120 734 q 161 723 159 736 q 224 431 202 557 q 247 125 245 305 l 235 -1 q 334 -37 283 -11 q 345 -65 345 -48 q 323 -84 341 -84 q 227 -45 273 -61 q 106 -372 184 -269 q -69 -484 28 -476 l -102 -484 q -226 -407 -193 -469 q -259 -267 -259 -345 q 77 15 -234 -1 q 191 9 148 15 l 200 129 q 181 431 200 313 q 123 696 161 549 m 183 -35 q 80 -29 132 -29 q -216 -271 -199 -52 q -191 -381 -216 -332 q -103 -444 -165 -431 l -75 -444 q 75 -341 0 -434 q 183 -35 149 -249 z "},"k":{"ha":613,"x_min":18,"x_max":640,"o":"m 18 645 q 115 987 36 873 q 306 1116 194 1100 l 340 1118 q 425 1076 425 1112 q 399 1061 422 1061 q 338 1075 369 1072 q 154 964 227 1073 q 66 656 81 854 l 66 537 l 77 287 q 198 585 102 439 q 444 749 294 730 l 494 749 q 593 623 591 722 l 587 591 q 315 426 514 428 q 262 433 285 426 q 420 37 320 49 q 597 223 503 41 q 623 239 605 239 q 640 219 639 237 l 637 210 q 420 -2 526 -2 q 222 432 268 2 l 218 448 q 238 475 218 472 q 269 470 251 475 q 311 465 286 465 q 538 600 485 467 l 545 629 q 479 708 538 701 l 452 707 q 211 522 298 684 q 102 180 125 359 l 140 22 q 115 0 139 1 q 92 20 95 1 q 19 505 30 221 l 18 645 z "},"l":{"ha":408,"x_min":-51,"x_max":456,"o":"m 348 1080 q 148 906 217 1060 q 71 666 79 752 q 290 784 174 680 q 416 990 406 888 q 348 1080 416 1075 m -31 611 q -51 631 -51 611 q -33 653 -50 652 q 24 655 -1 655 q 120 945 37 790 q 330 1120 202 1100 l 374 1120 q 456 996 452 1105 q 315 748 448 863 q 62 620 182 633 l 55 465 q 101 175 60 287 q 229 33 142 63 l 260 34 q 411 243 353 69 q 435 266 416 265 q 454 243 454 265 q 264 -10 378 14 l 210 -10 q 65 136 121 7 q 7 475 9 266 l 16 610 q -31 611 -1 611 z "},"m":{"ha":867,"x_min":12,"x_max":825,"o":"m 22 557 q 12 659 17 631 q 45 690 12 690 q 68 655 66 690 q 82 420 68 608 q 237 736 127 724 q 327 359 313 732 q 612 743 404 720 l 643 743 q 825 452 798 723 q 676 16 825 182 q 637 -9 655 -9 q 620 18 620 -7 q 659 77 622 45 q 777 431 766 195 q 627 699 760 694 q 359 317 431 684 q 349 26 349 271 q 324 -1 348 -1 q 294 26 294 -1 l 296 170 l 288 321 q 232 685 266 656 q 154 541 194 685 q 96 217 113 397 q 106 28 100 141 q 79 -1 105 -1 q 52 28 54 -1 q 22 557 52 184 z "},"n":{"ha":528,"x_min":-18,"x_max":507,"o":"m -18 677 q 7 715 -18 714 q 33 688 28 715 q 45 528 41 616 l 43 399 q 149 617 69 511 q 338 732 229 724 l 378 728 q 507 508 489 705 q 428 16 507 242 q 403 -2 420 -2 q 385 26 385 -2 l 391 42 q 463 509 461 245 q 338 687 450 682 q 172 575 256 684 q 56 241 89 466 q 66 29 56 180 q 43 -1 66 1 q 16 22 21 -1 q 2 353 7 114 l -5 585 l -18 677 z "},"o":{"ha":519,"x_min":-26,"x_max":504,"o":"m 328 748 q 504 477 503 747 q 405 142 496 288 q 165 -11 313 -3 q -26 275 -14 4 q 26 488 -24 378 q 172 597 77 597 q 245 503 243 587 q 187 432 234 444 q 165 448 165 432 q 183 476 165 467 q 204 506 201 486 q 168 556 204 549 q 61 457 100 552 q 21 271 21 363 q 169 37 31 47 q 372 173 296 45 q 459 475 448 301 q 331 708 458 707 q 229 640 246 701 q 205 614 226 614 q 185 644 185 614 q 328 748 207 741 z "},"p":{"ha":587,"x_min":-10,"x_max":568,"o":"m -10 802 q 14 840 -10 839 q 40 802 40 840 q 68 304 67 680 q 182 590 89 458 q 393 722 275 722 q 568 514 568 717 q 467 171 568 345 q 227 -5 366 -3 q 109 148 122 -5 q 132 178 109 172 q 166 144 159 175 l 166 98 q 227 39 180 39 q 426 197 332 39 q 520 517 520 355 q 397 675 519 675 q 209 549 295 675 q 85 161 122 423 l 77 -45 q 53 -449 73 -293 q 27 -486 53 -486 q 0 -452 0 -486 q 29 -49 22 -296 l 31 212 q 7 722 24 637 l -10 802 z "},"q":{"ha":538,"x_min":-1,"x_max":918,"o":"m 695 -441 q 456 -100 512 -402 q 319 -168 384 -128 l 296 -180 q 272 -162 277 -178 q 307 -122 273 -142 q 452 -54 363 -81 l 436 221 l 444 425 q 131 1 330 16 l 115 1 q -1 150 7 9 l 0 180 q 127 537 14 347 q 385 759 240 727 l 413 762 q 486 671 485 753 q 468 650 486 650 q 448 671 449 650 q 410 720 448 717 l 395 718 q 161 508 272 689 q 42 165 51 327 q 126 43 46 43 q 435 553 307 53 q 463 604 435 604 q 487 553 486 604 l 490 497 l 480 222 l 490 -41 q 619 -28 551 -28 q 835 -99 761 -34 q 918 -254 909 -165 l 918 -280 q 735 -446 909 -427 l 695 -441 m 496 -84 q 716 -401 548 -370 q 876 -277 869 -399 q 808 -132 876 -191 q 615 -68 741 -73 q 496 -84 551 -71 z "},"r":{"ha":394,"x_min":-40,"x_max":385,"o":"m -40 600 q -16 625 -40 624 q 95 458 71 625 q 292 713 140 703 q 385 659 366 711 q 368 627 385 627 q 336 656 347 627 q 292 669 315 669 q 175 562 222 669 q 120 313 127 454 l 111 26 q 84 -3 111 -3 q 60 22 60 -3 l 67 365 q -14 578 47 549 q -40 600 -35 581 z "},"s":{"ha":515,"x_min":2,"x_max":497,"o":"m 312 779 l 344 779 q 497 650 488 763 q 452 578 497 597 l 434 574 q 405 595 405 576 q 427 618 405 618 q 457 650 453 619 q 334 739 448 732 l 317 739 q 206 630 206 731 q 339 464 208 555 q 471 199 471 372 q 256 3 451 10 l 224 3 q 2 212 39 19 q 127 412 3 376 l 138 414 q 165 388 165 413 q 119 362 164 363 q 47 218 47 322 q 224 46 73 71 l 256 46 q 428 197 402 51 q 295 447 428 354 q 163 627 163 540 q 312 779 163 772 z "},"t":{"ha":389,"x_min":-42,"x_max":416,"o":"m 90 812 q 178 1058 134 964 q 209 1085 183 1085 q 225 1056 225 1080 q 137 813 186 959 q 372 829 248 827 q 393 801 393 829 q 369 777 393 783 q 123 760 245 777 q 72 399 72 574 q 220 47 89 70 q 370 212 327 47 q 398 229 376 228 q 416 195 416 227 q 220 -1 349 4 q 28 393 35 31 q 75 758 28 584 q -14 749 35 751 q -42 777 -41 753 q -19 797 -41 793 q 90 812 47 803 z "},"u":{"ha":656,"x_min":5,"x_max":687,"o":"m 443 420 q 146 1 333 16 l 131 1 q 7 171 22 9 l 5 215 q 40 457 5 338 q 151 720 75 577 q 178 736 159 736 q 197 707 197 730 l 193 696 q 87 444 119 556 q 51 186 54 332 q 142 46 62 46 q 444 641 340 75 q 471 702 444 702 q 495 648 495 702 l 488 460 q 522 136 488 268 q 585 41 552 41 q 648 142 623 42 q 669 157 654 157 q 687 140 686 155 l 684 122 q 578 -3 657 -3 q 477 124 513 5 q 443 420 443 268 z "},"v":{"ha":498,"x_min":-67,"x_max":497,"o":"m -15 581 q 149 58 94 435 q 451 566 439 292 q 353 709 447 689 q 220 637 252 707 l 215 624 q 194 614 208 614 q 173 633 178 615 l 174 639 q 351 753 216 753 q 497 570 481 748 q 148 -5 496 269 l 134 -8 q 110 9 115 -5 q -67 568 47 458 q -48 601 -67 595 q -15 581 -23 598 z "},"w":{"ha":734,"x_min":-26,"x_max":720,"o":"m -26 614 q -3 637 -26 636 q 19 625 16 637 q 137 69 44 347 l 231 370 q 253 378 235 378 q 269 365 265 378 l 419 47 l 427 49 q 677 571 677 338 q 541 714 667 703 q 360 546 407 706 q 336 524 356 526 q 316 556 316 526 l 319 567 q 544 759 376 758 q 720 568 713 751 q 450 10 720 312 q 418 -9 437 -9 q 385 11 391 -5 l 253 304 l 165 12 q 143 -1 157 -1 q 98 41 105 -1 q -26 614 2 328 z "},"x":{"ha":652,"x_min":1,"x_max":681,"o":"m 200 429 q 123 352 187 361 l 102 353 q 8 515 9 372 q 172 731 27 711 l 198 732 q 356 511 352 709 q 563 732 436 721 q 681 604 675 726 q 661 580 680 581 q 640 610 640 581 q 566 687 635 687 q 388 456 446 678 l 385 407 q 574 43 388 73 l 633 41 q 656 18 656 40 q 631 -1 656 3 l 551 4 q 340 391 353 45 q 59 -1 237 47 l 33 -2 q 1 20 2 -2 q 43 41 6 41 q 311 440 197 63 l 313 497 q 193 692 313 675 q 50 511 66 682 q 111 393 53 407 q 163 437 154 393 q 182 456 165 456 q 200 429 200 456 z "},"y":{"ha":563,"x_min":-4,"x_max":599,"o":"m 451 -7 q 179 -72 293 -9 q 41 -258 64 -135 l 39 -291 q 148 -436 48 -434 q 451 -7 353 -434 m 460 38 q 479 286 478 132 q 457 528 477 397 q 140 1 339 18 l 125 1 q 1 175 16 10 l -1 218 q 53 468 2 328 q 178 717 104 607 q 205 732 187 732 q 225 704 224 727 l 221 693 q 94 456 142 591 q 45 191 45 321 q 136 45 56 45 q 438 646 317 56 q 465 700 438 700 q 489 647 489 700 q 523 291 519 400 q 505 35 523 161 q 578 20 557 29 q 599 -5 598 12 q 577 -25 595 -24 l 567 -24 q 495 -9 536 -11 q 157 -481 392 -459 l 125 -479 q -4 -291 5 -454 l -3 -262 q 150 -38 22 -109 q 460 38 277 34 z "},"z":{"ha":449,"x_min":-114,"x_max":524,"o":"m 370 -7 q 71 -115 191 -9 q -71 -324 -49 -221 l -71 -357 q 18 -437 -63 -435 q 253 -298 155 -431 q 370 -7 351 -165 m 376 38 q 167 270 357 250 l 92 265 q 60 291 61 265 q 91 316 60 316 q 326 534 313 362 q 193 692 315 682 q 45 564 58 688 q 112 462 47 484 q 131 440 131 460 q 107 423 130 423 q 2 565 7 447 q 193 732 17 730 q 366 536 358 723 q 202 307 366 378 q 419 35 406 275 q 503 20 483 29 q 524 -5 524 12 q 503 -25 520 -24 l 492 -24 q 414 -9 461 -11 q 284 -331 395 -188 q 28 -481 174 -475 l -3 -479 q -114 -357 -97 -472 l -114 -328 q 42 -81 -91 -195 q 376 38 176 34 z "},"{":{"ha":688,"x_min":163,"x_max":600,"o":"m 163 473 q 314 522 279 477 q 349 612 349 566 l 349 929 q 401 1025 349 979 q 526 1071 453 1071 l 600 1071 l 600 1037 l 538 1037 q 466 1014 497 1037 q 434 952 435 991 l 434 613 q 393 506 434 557 q 296 454 352 454 l 296 452 q 393 401 352 452 q 435 294 435 350 l 434 -45 q 466 -107 435 -85 q 538 -130 497 -130 l 600 -130 l 600 -164 l 526 -164 q 401 -118 453 -164 q 349 -22 349 -73 l 349 295 q 314 385 349 340 q 163 433 279 429 l 163 473 z "},"|":{"ha":688,"x_min":290,"x_max":398,"o":"m 290 1069 l 398 1069 l 398 -283 l 290 -283 l 290 1069 z "},"}":{"ha":688,"x_min":88,"x_max":525,"o":"m 525 433 q 374 385 408 429 q 339 295 339 340 l 339 -22 q 287 -118 338 -73 q 161 -164 235 -164 l 88 -164 l 88 -130 l 149 -130 q 222 -107 191 -130 q 254 -45 253 -85 l 253 294 q 294 401 253 350 q 392 452 336 452 l 392 454 q 295 506 336 454 q 254 613 254 557 l 254 952 q 222 1014 253 991 q 149 1037 191 1037 l 88 1037 l 88 1071 l 161 1071 q 287 1025 235 1071 q 339 929 339 979 l 339 612 q 374 522 339 566 q 525 473 408 477 l 525 433 z "},"~":{"ha":688,"x_min":0,"x_max":0,"o":""},"£":{"ha":742,"x_min":7,"x_max":712,"o":"m 106 515 l 26 515 q 7 543 7 523 q 28 567 9 562 l 118 567 q 130 629 122 601 l 26 629 q 7 656 7 636 q 28 680 9 675 l 139 680 q 235 908 164 791 q 539 1127 366 1117 q 684 998 680 1122 q 597 873 677 890 q 551 907 551 874 q 578 932 553 928 q 633 996 629 932 q 544 1078 627 1073 q 288 890 401 1065 q 198 680 220 783 l 464 680 q 483 654 483 678 q 466 629 483 633 l 182 629 q 172 567 174 598 l 464 566 q 483 541 483 564 q 466 515 483 519 l 167 515 q 158 446 165 508 q 115 93 139 260 l 414 56 q 659 199 640 56 q 581 275 658 269 q 555 304 558 279 q 585 332 557 330 q 712 205 712 313 q 406 1 696 1 l 106 34 q 31 54 46 34 q 54 104 34 82 q 106 515 83 263 z "},"¤":{"ha":688,"x_min":83,"x_max":604,"o":"m 237 380 q 304 341 265 353 q 344 336 324 336 q 383 341 363 336 q 450 380 422 353 q 489 447 477 408 q 495 486 495 467 q 489 526 495 506 q 450 593 477 565 q 382 631 422 620 q 343 637 363 637 q 304 631 323 637 q 237 593 264 619 q 199 526 211 566 q 193 486 193 506 q 199 448 193 467 q 237 380 210 408 m 163 612 l 83 692 l 137 747 l 217 667 q 284 699 247 688 q 345 708 314 708 q 401 700 372 708 q 470 667 439 688 l 550 747 l 604 692 l 525 613 q 557 544 546 582 q 566 486 566 515 q 557 429 566 458 q 525 359 546 391 l 604 280 l 550 225 l 470 305 q 401 273 439 283 q 344 264 373 264 q 286 273 315 264 q 217 305 248 283 l 137 225 l 83 280 l 163 359 q 130 429 141 391 q 122 486 122 458 q 131 545 122 516 q 163 612 142 583 z "},"¥":{"ha":856,"x_min":5,"x_max":864,"o":"m 371 153 l 370 317 q 369 340 370 330 q 366 362 368 351 l 37 363 q 23 367 28 363 q 18 380 18 372 q 23 393 18 389 q 37 397 27 397 l 354 397 l 272 514 l 39 514 q 23 518 27 514 q 18 530 18 522 q 22 544 18 540 q 37 547 26 547 l 245 547 q 172 652 216 586 q 18 786 83 786 q 9 790 14 786 q 5 798 5 793 q 13 816 5 810 q 35 822 20 822 q 118 817 53 822 q 229 811 183 811 l 289 811 q 317 807 311 811 q 322 789 322 802 q 312 779 322 783 q 286 775 302 775 q 274 777 282 775 q 261 778 265 778 q 236 771 245 778 q 227 754 227 765 q 238 719 227 742 q 269 667 249 696 l 376 517 q 399 481 385 504 q 447 433 427 433 q 458 437 453 433 q 468 447 463 440 l 656 715 q 665 733 661 724 q 668 750 668 743 q 661 768 668 762 q 636 778 654 774 q 608 781 626 779 q 576 798 576 783 q 582 813 576 808 q 599 818 587 818 q 609 817 601 818 q 682 812 647 812 l 777 812 q 821 813 797 812 q 846 814 844 814 q 858 811 853 814 q 864 803 863 808 q 838 780 864 784 q 820 777 826 778 q 720 697 777 766 q 712 687 715 691 l 597 547 l 817 547 q 833 543 827 547 q 839 532 839 539 q 835 518 839 522 q 819 514 831 514 l 571 514 q 506 438 540 475 q 470 397 471 400 l 817 397 q 834 394 829 397 q 839 382 839 390 q 834 368 839 372 q 819 363 829 363 l 460 363 q 459 342 460 355 q 458 322 458 329 l 460 176 q 464 75 460 99 q 477 45 467 50 q 550 32 498 33 q 603 11 603 31 q 596 -3 603 3 q 579 -8 589 -8 q 555 -5 578 -8 q 511 -3 532 -3 q 370 -5 450 -3 q 273 -8 290 -8 q 246 -5 252 -8 q 240 5 240 -3 q 245 18 240 14 q 271 26 251 22 q 288 30 277 28 q 350 52 338 41 q 366 83 361 60 q 371 153 371 106 z "},"¦":{"ha":688,"x_min":290,"x_max":398,"o":"m 290 252 l 398 252 l 398 -283 l 290 -283 l 290 252 m 290 1070 l 398 1070 l 398 535 l 290 535 l 290 1070 z "},"§":{"ha":688,"x_min":115,"x_max":572,"o":"m 370 218 q 435 254 408 229 q 485 366 485 298 q 484 373 485 370 l 483 373 q 480 391 482 382 q 404 477 465 433 q 318 497 363 497 q 233 467 265 497 q 201 387 201 437 q 370 218 201 304 m 316 -235 q 441 -188 393 -231 q 490 -76 490 -144 q 276 111 490 9 q 157 204 193 155 q 121 324 121 254 q 182 485 121 425 q 297 541 227 529 l 270 553 q 151 646 186 597 q 115 766 115 696 q 176 927 115 867 q 322 985 231 981 q 334 986 328 986 l 336 986 q 446 975 380 986 q 512 947 512 964 l 512 815 l 477 815 q 423 905 474 870 q 322 939 376 937 l 312 939 q 227 909 259 939 q 195 829 195 879 q 390 647 195 740 q 529 550 491 602 q 566 422 566 498 q 498 231 566 307 q 431 188 466 205 q 535 108 504 150 q 572 -19 572 56 q 504 -211 572 -135 q 316 -282 420 -280 l 316 -281 q 307 -282 312 -282 l 305 -282 q 195 -271 260 -282 q 129 -243 129 -260 l 129 -111 l 163 -111 q 218 -201 167 -166 q 316 -235 264 -231 z "},"¨":{"ha":694,"x_min":142,"x_max":536,"o":"m 151 874 l 199 923 q 216 931 208 931 q 235 922 224 931 l 281 872 q 288 855 288 863 q 280 837 288 846 l 233 786 q 216 774 222 774 q 199 783 207 774 l 148 841 q 142 857 142 849 q 151 874 142 865 m 399 874 l 447 923 q 464 931 456 931 q 482 922 471 931 l 529 872 q 536 855 536 863 q 528 838 536 846 l 481 786 q 464 774 469 774 q 447 783 454 774 l 395 842 q 389 857 389 849 q 399 874 389 865 z "},"©":{"ha":1135,"x_min":68,"x_max":1067,"o":"m 570 987 q 760 949 668 987 q 922 840 851 911 q 1029 679 991 772 q 1067 487 1067 586 q 1029 296 1067 387 q 919 133 991 204 q 757 25 848 62 q 565 -12 666 -12 q 376 25 466 -12 q 215 134 287 63 q 105 295 143 205 q 68 487 68 386 q 105 679 68 587 q 214 840 143 770 q 375 949 283 911 q 570 987 468 987 m 242 812 q 143 663 178 747 q 109 487 109 579 q 143 311 109 394 q 243 163 178 229 q 392 63 310 98 q 566 28 474 28 q 742 63 659 28 q 890 161 825 97 q 991 312 956 228 q 1027 487 1027 395 q 991 663 1027 578 q 893 812 956 748 q 744 912 828 877 q 569 947 660 947 q 391 912 476 947 q 242 812 307 877 m 587 151 q 408 197 490 151 q 281 323 325 243 q 238 488 238 402 q 282 653 238 573 q 410 778 327 733 q 582 823 492 823 q 633 819 608 823 q 684 805 658 814 q 690 804 688 804 q 708 825 703 804 l 736 825 l 785 690 l 755 690 q 667 774 720 754 q 567 792 618 792 l 557 792 q 444 744 498 787 q 361 624 389 701 q 339 499 339 563 q 340 465 339 482 q 388 313 348 383 q 489 210 427 243 q 602 182 538 183 q 733 220 686 182 q 781 305 781 258 l 817 305 l 817 237 q 751 179 817 206 q 587 151 686 151 z "},"«":{"ha":640,"x_min":118,"x_max":572,"o":"m 118 325 l 350 530 l 359 530 l 359 505 l 220 325 l 359 144 l 359 119 l 350 119 l 118 325 m 330 325 l 562 530 l 572 530 l 572 505 l 433 325 l 572 144 l 572 119 l 562 119 l 330 325 z "},"¬":{"ha":688,"x_min":59,"x_max":629,"o":"m 59 520 l 629 520 l 629 187 l 628 186 l 562 186 l 562 452 l 59 452 l 59 520 z "},"®":{"ha":1135,"x_min":68,"x_max":1067,"o":"m 509 745 l 509 492 l 511 486 q 549 431 527 448 q 587 416 569 416 l 591 416 q 633 443 612 419 q 665 509 654 466 q 673 578 673 543 q 673 597 673 587 q 654 681 670 642 q 615 733 637 720 q 572 745 593 745 l 509 745 m 667 391 l 723 312 q 825 216 791 216 l 848 216 l 848 182 l 613 182 l 613 216 l 644 216 q 664 231 664 216 q 617 309 664 251 l 566 378 q 509 406 538 378 l 509 298 q 534 216 509 216 l 570 216 l 570 182 l 355 182 l 355 216 l 385 216 q 410 298 410 216 l 410 663 q 385 745 410 745 l 355 745 l 355 793 l 597 793 q 682 764 640 792 q 744 687 722 736 q 766 584 766 637 q 745 482 766 531 q 667 391 723 433 m 570 987 q 760 949 668 987 q 922 840 851 911 q 1029 679 991 772 q 1067 487 1067 586 q 1029 296 1067 387 q 919 133 991 204 q 757 25 848 62 q 565 -12 666 -12 q 376 25 466 -12 q 215 134 287 63 q 105 295 143 205 q 68 487 68 386 q 105 679 68 587 q 214 840 143 770 q 375 949 283 911 q 570 987 468 987 m 242 812 q 143 663 178 747 q 109 487 109 579 q 143 311 109 394 q 243 163 178 229 q 392 63 310 98 q 566 28 474 28 q 742 63 659 28 q 890 161 825 97 q 991 312 956 228 q 1027 487 1027 395 q 991 663 1027 578 q 893 812 956 748 q 744 912 828 877 q 569 947 660 947 q 391 912 476 947 q 242 812 307 877 z "},"°":{"ha":457,"x_min":41,"x_max":418,"o":"m 230 930 q 130 889 172 930 q 88 789 88 848 q 130 689 88 730 q 230 648 171 648 q 330 689 289 648 q 370 789 370 730 q 329 889 370 848 q 230 930 288 930 m 230 978 q 363 923 308 978 q 418 789 418 867 q 362 656 418 712 q 229 601 307 601 q 95 656 149 601 q 41 789 41 711 q 96 923 41 868 q 230 978 151 978 z "},"´":{"ha":694,"x_min":210,"x_max":501,"o":"m 501 867 q 481 842 500 850 q 242 768 460 833 l 231 766 q 210 782 210 766 q 258 819 210 795 q 454 899 408 892 q 501 867 494 899 z "},"¶":{"ha":694,"x_min":63,"x_max":630,"o":"m 630 973 l 630 926 l 544 926 l 544 0 l 488 0 l 488 926 l 376 926 l 376 0 l 319 0 l 319 500 q 132 570 201 506 q 63 736 63 634 q 136 908 63 843 q 330 973 209 973 l 630 973 z "},"·":{"ha":345,"x_min":87,"x_max":257,"o":"m 98 502 l 154 559 q 174 568 164 568 q 195 557 182 568 l 249 499 q 257 479 257 488 q 248 458 257 469 l 193 399 q 174 385 180 385 q 154 395 163 385 l 94 463 q 87 481 87 472 q 98 502 87 491 z "},"¸":{"ha":694,"x_min":256,"x_max":481,"o":"m 256 -244 q 286 -225 262 -226 q 354 -240 309 -237 q 438 -172 435 -238 q 375 -110 434 -120 q 322 -59 325 -103 q 340 0 323 -30 l 381 0 q 361 -52 364 -23 q 375 -69 361 -66 q 481 -174 474 -83 q 354 -281 479 -275 q 279 -270 306 -279 q 256 -244 258 -266 z "},"»":{"ha":640,"x_min":68,"x_max":522,"o":"m 78 119 l 68 119 l 68 144 l 208 325 l 68 505 l 68 530 l 78 530 l 310 325 l 78 119 m 290 119 l 281 119 l 281 144 l 420 325 l 281 505 l 281 530 l 290 530 l 522 325 l 290 119 z "},"×":{"ha":688,"x_min":109,"x_max":578,"o":"m 344 419 l 176 252 l 109 319 l 277 486 l 109 654 l 176 721 l 344 553 l 512 721 l 578 654 l 411 486 l 578 319 l 511 252 l 344 419 z "},"÷":{"ha":688,"x_min":59,"x_max":629,"o":"m 59 439 l 59 534 l 628 534 l 629 533 l 629 439 l 59 439 m 270 277 l 326 334 q 345 343 336 343 q 366 332 354 343 l 420 274 q 429 254 429 263 q 419 233 429 244 l 365 174 q 345 160 351 160 q 326 170 334 160 l 266 238 q 259 256 259 247 q 270 277 259 266 m 270 747 l 326 804 q 345 813 336 813 q 366 802 354 813 l 420 744 q 429 724 429 733 q 419 703 429 714 l 365 644 q 345 630 351 630 q 326 640 334 630 l 266 708 q 259 726 259 717 q 270 747 259 736 z "},"ı":{"ha":349,"x_min":13,"x_max":321,"o":"m 222 151 q 290 34 222 34 l 321 34 l 321 0 l 22 0 l 22 34 l 53 34 q 121 151 121 34 l 121 444 q 45 496 121 496 l 13 496 l 13 526 q 190 650 163 573 l 222 650 l 222 151 z "},"ˆ":{"ha":694,"x_min":150,"x_max":545,"o":"m 150 732 l 307 972 l 387 972 l 545 732 l 505 732 l 347 878 l 189 732 l 150 732 z "},"ˇ":{"ha":694,"x_min":150,"x_max":545,"o":"m 150 972 l 189 972 l 347 827 l 505 972 l 545 972 l 387 731 l 307 731 l 150 972 z "},"ˉ":{"ha":694,"x_min":172,"x_max":522,"o":"m 172 810 l 172 895 l 522 895 l 522 810 l 172 810 z "},"˘":{"ha":694,"x_min":149,"x_max":545,"o":"m 149 915 l 183 915 q 234 842 195 865 q 347 819 273 819 q 460 842 421 819 q 510 915 498 865 l 545 915 q 481 778 531 825 q 347 732 431 732 q 214 779 264 732 q 149 915 163 825 z "},"˙":{"ha":694,"x_min":277,"x_max":422,"o":"m 286 874 l 333 923 q 342 929 337 927 q 351 931 347 931 q 360 929 355 931 q 368 923 364 927 l 416 871 q 421 865 420 869 q 422 855 422 861 q 420 845 422 849 q 415 837 419 841 l 367 785 q 356 776 359 778 q 351 774 353 774 q 340 776 345 774 q 333 782 336 778 l 282 841 q 278 847 279 844 q 277 857 277 851 q 279 865 277 861 q 286 874 281 869 z "},"˚":{"ha":694,"x_min":227,"x_max":468,"o":"m 279 852 q 298 804 279 824 q 347 785 318 785 q 395 804 375 785 q 414 852 414 824 q 394 900 414 880 q 347 920 374 920 q 299 900 319 920 q 279 852 279 880 m 227 852 q 262 938 227 903 q 347 972 296 972 q 433 938 398 972 q 468 852 468 903 q 433 767 468 802 q 347 732 398 732 q 262 767 296 732 q 227 852 227 802 z "},"˛":{"ha":694,"x_min":250,"x_max":500,"o":"m 434 0 q 359 -81 386 -42 q 332 -157 332 -120 q 351 -208 332 -189 q 400 -227 369 -227 q 447 -217 427 -227 q 481 -184 467 -206 l 500 -195 q 438 -260 475 -237 q 357 -283 401 -283 q 280 -259 310 -283 q 250 -198 250 -235 q 291 -92 250 -146 q 401 0 332 -37 l 434 0 z "},"˜":{"ha":694,"x_min":159,"x_max":548,"o":"m 548 937 q 502 833 534 867 q 416 798 469 798 l 413 798 q 336 814 379 798 q 259 830 292 830 q 218 816 233 830 q 195 768 203 802 l 159 768 q 205 875 172 840 q 292 911 238 911 q 369 895 323 910 q 445 879 412 879 l 448 879 q 487 892 472 879 q 511 937 502 906 l 548 937 z "},"˝":{"ha":694,"x_min":147,"x_max":547,"o":"m 147 732 l 245 917 q 276 960 261 947 q 307 972 290 972 q 340 959 326 972 q 353 927 353 945 q 346 903 353 916 q 326 876 339 890 l 186 732 l 147 732 m 340 732 l 438 917 q 469 960 454 947 q 500 972 484 972 q 533 959 519 972 q 547 927 547 945 q 539 903 547 916 q 519 876 532 890 l 380 732 l 340 732 z "},"–":{"ha":751,"x_min":38,"x_max":713,"o":"m 38 284 l 38 366 l 713 366 l 713 284 l 38 284 z "},"—":{"ha":1389,"x_min":0,"x_max":1389,"o":"m 0 284 l 0 366 l 1389 366 l 1389 284 l 0 284 z "},"‘":{"ha":378,"x_min":130,"x_max":260,"o":"m 197 890 q 247 826 247 887 q 188 768 237 768 q 130 833 133 772 q 167 960 132 904 q 243 1020 202 1016 q 260 1001 260 1018 q 233 961 260 982 q 197 890 205 940 z "},"’":{"ha":378,"x_min":131,"x_max":258,"o":"m 193 907 q 141 970 142 909 q 199 1029 150 1028 q 258 965 254 1026 q 223 838 258 895 q 149 777 189 781 q 131 795 132 778 q 158 835 131 814 q 193 907 184 857 z "},"‚":{"ha":378,"x_min":102,"x_max":229,"o":"m 164 28 q 113 92 114 31 q 170 151 121 150 q 229 87 225 148 q 195 -40 229 16 q 120 -102 161 -97 q 102 -83 103 -100 q 129 -43 102 -64 q 164 28 156 -22 z "},"“":{"ha":617,"x_min":146,"x_max":422,"o":"m 361 895 q 412 832 411 893 q 355 773 404 774 q 296 837 300 776 q 330 964 296 907 q 405 1025 364 1021 q 422 1006 422 1024 q 396 967 422 988 q 361 895 369 945 m 212 895 q 263 832 262 893 q 205 773 254 774 q 146 837 151 776 q 181 964 146 907 q 256 1025 215 1021 q 273 1006 273 1024 q 247 967 273 988 q 212 895 220 945 z "},"”":{"ha":617,"x_min":165,"x_max":441,"o":"m 227 907 q 175 970 176 909 q 233 1029 184 1028 q 292 965 288 1026 q 257 838 292 895 q 182 777 223 781 q 165 795 165 778 q 192 835 165 814 q 227 907 218 857 m 376 907 q 324 970 326 909 q 382 1029 333 1028 q 441 965 437 1026 q 407 838 441 895 q 332 777 372 781 q 314 795 315 778 q 341 835 314 814 q 376 907 368 857 z "},"„":{"ha":617,"x_min":134,"x_max":410,"o":"m 196 9 q 144 73 146 12 q 202 132 153 131 q 261 68 257 129 q 227 -59 261 -3 q 152 -121 193 -116 q 134 -102 135 -119 q 161 -62 134 -83 q 196 9 188 -41 m 345 9 q 294 73 295 12 q 351 132 302 131 q 410 68 406 129 q 376 -59 410 -3 q 301 -121 342 -116 q 283 -102 284 -119 q 310 -62 283 -83 q 345 9 337 -41 z "},"†":{"ha":688,"x_min":48,"x_max":640,"o":"m 330 693 q 293 814 324 759 q 254 901 254 882 q 279 955 254 935 q 344 975 303 975 q 408 956 382 975 q 433 907 433 937 q 396 814 433 886 q 359 693 365 757 q 479 730 424 699 q 566 768 547 768 q 620 744 600 768 q 640 679 640 720 q 622 615 640 640 q 572 589 603 589 q 480 627 551 589 q 359 665 422 658 q 433 477 364 546 q 357 -183 361 165 l 332 -183 q 254 477 328 165 q 330 665 323 546 q 209 628 264 659 q 121 589 140 589 q 68 614 88 589 q 48 679 48 638 q 67 743 48 718 q 115 768 85 768 q 208 730 137 768 q 330 693 266 699 z "},"‡":{"ha":688,"x_min":47,"x_max":640,"o":"m 358 126 q 479 165 422 134 q 572 202 550 202 q 621 177 602 202 q 640 113 640 151 q 619 47 640 72 q 566 23 599 23 q 478 62 547 23 q 358 98 423 93 q 395 -23 364 35 q 433 -116 433 -94 q 407 -164 433 -146 q 343 -183 382 -183 q 278 -163 302 -183 q 254 -110 254 -143 q 292 -22 254 -91 q 329 98 323 33 q 208 61 265 92 q 115 23 136 23 q 66 48 85 23 q 47 113 47 74 q 67 178 47 153 q 121 202 87 202 q 208 163 140 202 q 329 126 264 133 q 254 396 323 279 q 329 665 323 512 q 208 628 264 659 q 121 589 140 589 q 67 614 87 589 q 47 679 47 638 q 66 743 47 718 q 115 768 85 768 q 208 730 136 768 q 329 693 265 699 q 292 814 323 759 q 254 901 254 882 q 278 955 254 935 q 343 975 302 975 q 407 956 382 975 q 433 907 433 937 q 395 814 433 886 q 358 693 364 757 q 478 730 423 699 q 566 768 547 768 q 619 744 599 768 q 640 679 640 720 q 621 615 640 640 q 572 589 602 589 q 479 627 550 589 q 358 665 422 658 q 433 396 363 512 q 358 126 363 279 z "},"•":{"ha":694,"x_min":146,"x_max":548,"o":"m 146 487 q 205 629 146 570 q 348 687 264 687 q 489 628 431 687 q 548 487 548 570 q 489 345 548 404 q 347 286 429 286 q 205 345 263 286 q 146 487 146 404 z "},"…":{"ha":1389,"x_min":87,"x_max":1183,"o":"m 98 113 l 154 170 q 174 180 164 180 q 195 169 182 180 l 249 111 q 257 91 257 100 q 248 70 257 81 l 193 10 q 174 -3 180 -3 q 154 6 163 -3 l 94 75 q 87 92 87 83 q 98 113 87 102 m 562 113 l 617 170 q 637 180 627 180 q 658 169 646 180 l 712 111 q 720 91 720 100 q 711 70 720 81 l 656 10 q 637 -3 643 -3 q 617 6 626 -3 l 557 75 q 551 92 551 83 q 562 113 551 102 m 1025 113 l 1080 170 q 1100 180 1090 180 q 1121 169 1109 180 l 1175 111 q 1183 91 1183 100 q 1174 70 1183 81 l 1120 10 q 1100 -3 1106 -3 q 1080 6 1089 -3 l 1021 75 q 1014 92 1014 83 q 1025 113 1014 102 z "},"‹":{"ha":428,"x_min":118,"x_max":359,"o":"m 118 325 l 350 530 l 359 530 l 359 505 l 220 325 l 359 144 l 359 119 l 350 119 l 118 325 z "},"›":{"ha":428,"x_min":68,"x_max":310,"o":"m 78 119 l 68 119 l 68 144 l 208 325 l 68 505 l 68 530 l 78 530 l 310 325 l 78 119 z "},"⁄":{"ha":232,"x_min":-232,"x_max":463,"o":"m -232 -20 l 406 971 l 463 971 l -174 -20 l -232 -20 z "},"₣":{"ha":688,"x_min":33,"x_max":723,"o":"m 168 242 l 36 242 l 36 283 l 168 283 l 168 779 q 98 939 168 939 l 33 939 l 33 972 l 653 972 l 723 816 l 690 816 q 561 939 650 939 l 347 939 q 277 779 277 939 l 277 541 l 522 541 q 590 583 590 541 l 590 623 l 624 623 l 624 391 l 590 391 l 590 431 q 522 473 590 473 l 277 473 l 277 283 l 409 283 l 409 242 l 277 242 l 277 193 q 347 34 277 34 l 412 34 l 412 0 l 33 0 l 33 34 l 98 34 q 168 193 168 34 l 168 242 z "},"₤":{"ha":688,"x_min":52,"x_max":635,"o":"m 507 913 q 399 935 458 935 l 397 935 q 269 866 330 935 q 212 703 212 803 q 212 682 212 692 q 235 538 212 610 l 492 538 l 492 497 l 248 497 q 266 456 256 477 l 505 456 l 505 416 l 287 416 q 311 322 311 373 q 201 68 311 213 l 473 68 q 602 157 562 68 l 635 157 l 565 0 l 77 0 l 78 34 q 205 317 205 195 q 182 414 205 370 l 180 416 l 64 416 l 64 456 l 161 456 q 143 497 151 477 l 52 497 l 52 538 l 128 538 q 104 669 104 610 q 188 904 104 822 q 398 986 271 986 q 524 977 449 986 q 599 954 599 967 l 599 844 l 559 844 q 507 913 556 886 z "},"₧":{"ha":1375,"x_min":33,"x_max":1334,"o":"m 277 939 l 277 490 q 282 478 279 484 q 355 374 310 409 q 434 345 394 345 q 447 345 441 345 q 533 396 493 351 q 592 516 573 441 q 607 637 607 575 q 606 669 607 654 q 573 818 602 748 q 499 916 544 887 q 423 939 461 939 q 409 939 416 939 l 277 939 m 1015 616 l 893 616 l 893 151 q 916 71 893 96 q 971 45 935 50 l 923 176 l 956 176 q 1034 58 994 88 q 1120 28 1072 28 l 1124 28 q 1227 64 1187 28 q 1267 156 1267 100 q 1091 309 1267 225 q 994 385 1023 345 q 964 484 964 426 q 1014 615 964 566 l 1015 616 m 705 617 q 672 486 700 549 q 576 365 638 408 q 448 322 515 322 q 318 366 380 322 q 277 400 296 380 l 277 193 q 347 34 277 34 l 412 34 l 412 0 l 33 0 l 33 34 l 98 34 q 168 193 168 34 l 168 779 q 98 939 168 939 l 33 939 l 33 972 l 452 972 q 574 930 514 971 q 671 810 636 888 q 706 650 705 734 l 713 650 q 859 890 859 650 l 893 890 l 893 650 l 1069 650 q 1143 663 1097 663 l 1145 663 q 1235 654 1181 663 q 1289 631 1289 645 l 1289 524 l 1261 524 q 1216 597 1258 568 q 1126 625 1175 625 q 1056 601 1082 625 q 1030 535 1030 576 q 1190 386 1030 462 q 1303 306 1272 349 q 1334 202 1334 264 q 1278 45 1334 107 q 1123 -13 1208 -12 q 1052 -5 1084 -13 q 1014 -1 1033 -1 q 989 -3 1002 -1 q 949 -7 970 -7 q 832 32 865 -7 q 793 151 798 71 l 792 151 l 792 617 l 705 617 z "},"€":{"ha":688,"x_min":-41,"x_max":690,"o":"m 98 673 q 208 908 134 791 q 512 1127 338 1117 q 656 998 652 1122 q 570 873 650 890 q 524 907 524 874 q 551 932 526 928 q 609 996 605 932 q 517 1080 607 1077 q 254 884 374 1065 q 151 673 188 783 l 552 673 q 571 648 571 671 q 554 622 571 626 l 135 622 q 121 560 127 591 l 552 559 q 571 534 571 557 q 554 509 571 513 l 113 509 q 111 493 111 501 l 110 398 q 328 45 132 74 q 539 168 453 45 q 642 423 626 290 q 668 460 645 460 q 690 419 690 456 q 583 135 682 277 q 327 -10 485 -6 q 60 391 87 13 l 62 486 q 64 509 63 497 l -22 509 q -41 536 -40 516 q -19 560 -38 555 l 71 560 q 83 622 76 591 l -22 622 q -41 650 -40 629 q -19 673 -38 668 l 98 673 z "},"∂":{"ha":688,"x_min":52,"x_max":635,"o":"m 157 364 q 161 311 157 336 q 202 155 170 228 q 283 43 235 81 q 370 7 326 7 q 378 7 374 7 q 465 55 426 11 q 519 177 504 100 q 530 278 530 227 q 527 336 530 307 q 485 493 517 418 q 404 605 452 567 q 317 639 359 639 l 309 639 q 224 592 263 635 q 168 471 184 548 q 157 364 157 414 m 635 323 q 597 153 635 234 q 489 28 559 73 q 344 -17 420 -17 q 198 28 268 -17 q 91 153 129 73 q 52 323 52 234 q 92 494 52 412 q 201 619 131 575 q 344 663 271 663 q 488 619 418 663 q 524 591 507 607 q 366 847 467 751 q 144 952 264 943 l 144 989 q 494 796 352 989 q 635 323 635 603 z "},"∆":{"ha":733,"x_min":4,"x_max":728,"o":"m 349 810 l 73 83 l 616 83 l 349 810 m 371 972 l 728 0 l 4 0 l 371 972 z "},"∏":{"ha":1027,"x_min":33,"x_max":995,"o":"m 347 939 q 277 779 277 939 l 277 -90 q 347 -249 277 -249 l 412 -249 l 412 -283 l 33 -283 l 33 -249 l 98 -249 q 168 -90 168 -249 l 168 779 q 98 939 168 939 l 33 939 l 33 972 l 995 972 l 995 939 l 929 939 q 860 779 860 939 l 860 -90 q 929 -249 860 -249 l 995 -249 l 995 -283 l 615 -283 l 615 -249 l 680 -249 q 750 -90 750 -249 l 750 779 q 680 939 750 939 l 347 939 z "},"∑":{"ha":818,"x_min":81,"x_max":776,"o":"m 718 372 l 184 -248 l 614 -248 q 743 -125 703 -248 l 776 -125 l 706 -282 l 81 -282 l 81 -248 q 153 -212 123 -248 l 603 317 l 153 900 q 81 939 123 939 l 81 972 l 706 972 l 776 815 l 743 815 q 614 939 703 939 l 286 939 l 718 372 z "},"−":{"ha":688,"x_min":59,"x_max":629,"o":"m 59 439 l 59 534 l 628 534 l 629 533 l 629 439 l 59 439 z "},"√":{"ha":688,"x_min":12,"x_max":715,"o":"m 123 0 l 12 243 l 62 267 l 119 142 l 613 1139 l 715 1139 l 715 1098 l 666 1098 l 123 0 z "},"∞":{"ha":688,"x_min":45,"x_max":645,"o":"m 298 512 q 248 602 288 582 q 191 617 216 617 q 175 616 182 617 q 112 586 142 609 q 68 528 83 562 q 54 467 54 497 l 54 462 q 73 401 56 429 q 121 362 90 374 q 163 355 141 355 q 185 357 174 355 q 247 386 217 363 q 298 512 276 409 m 316 466 q 380 362 324 401 q 463 330 427 330 q 477 331 471 330 q 557 366 519 339 q 614 435 595 393 q 632 508 632 471 l 632 515 q 608 589 631 556 q 546 635 585 622 q 494 644 521 644 q 465 642 479 644 q 378 600 419 635 q 316 466 338 564 m 305 561 q 319 608 311 585 q 384 701 342 667 q 471 734 425 734 q 557 701 516 734 q 622 610 599 669 q 645 486 645 551 q 622 363 645 422 q 557 271 599 304 q 471 239 516 239 q 384 272 425 239 q 319 364 342 305 q 305 412 311 388 q 297 384 302 397 q 247 307 279 334 q 180 280 215 280 q 112 308 144 280 q 62 385 79 336 q 45 486 45 434 q 62 587 45 538 q 112 665 79 637 q 180 692 144 692 q 247 665 215 692 q 297 589 279 638 q 305 561 302 575 z "},"∫":{"ha":451,"x_min":-49,"x_max":492,"o":"m -8 -191 q -49 -171 -49 -191 l -49 -63 l -24 -63 q -1 -107 -24 -92 q 42 -121 22 -121 l 43 -121 q 121 -12 98 -121 q 148 203 142 98 l 195 701 l 201 743 q 292 1034 219 904 q 451 1164 366 1164 q 492 1144 492 1164 l 492 1036 l 467 1036 q 444 1080 467 1065 q 401 1095 420 1095 q 322 989 353 1095 q 289 743 292 884 l 239 222 q 151 -62 226 66 q -8 -191 76 -191 z "},"≈":{"ha":688,"x_min":64,"x_max":626,"o":"m 626 714 l 626 608 q 543 542 583 559 q 465 525 503 525 q 344 558 424 525 q 224 591 264 591 q 152 572 190 591 q 64 496 113 553 l 64 602 q 147 669 107 651 q 224 686 187 686 q 348 653 268 686 q 465 619 427 619 q 538 638 500 619 q 626 714 576 657 m 626 478 l 626 372 q 543 306 583 323 q 465 289 503 289 q 344 322 424 289 q 224 355 264 355 q 152 336 190 355 q 64 260 113 317 l 64 366 q 147 433 107 415 q 224 450 187 450 q 348 417 268 450 q 465 383 427 383 q 538 402 500 383 q 626 478 576 421 z "},"≤":{"ha":688,"x_min":59,"x_max":629,"o":"m 629 728 l 205 485 l 629 244 l 629 131 l 59 457 l 59 513 l 629 842 l 629 728 m 59 1 l 59 96 l 628 96 l 629 95 l 629 1 l 59 1 z "},"≥":{"ha":688,"x_min":59,"x_max":629,"o":"m 59 842 l 629 513 l 629 457 l 59 131 l 59 244 l 483 485 l 59 728 l 59 842 m 59 1 l 59 96 l 628 96 l 629 96 l 629 1 l 59 1 z "}}}
